<svg xmlns="http://www.w3.org/2000/svg" id="uuid-2d7060f0-138f-4299-ab2d-62d8df56be7f" data-name="Layer 2" width="469.66" height="469.65" viewBox="0 0 469.66 469.65"><g id="uuid-7ddaff62-2a12-4ad4-817a-d70c1cfc83dd" data-name="logo"><g><path d="m469.66,234.83c0,129.69-105.14,234.83-234.83,234.83S0,364.52,0,234.83,105.14,0,234.83,0s234.83,105.14,234.83,234.83" style="fill: #dfbca3;"></path><path d="m66.87,274.17l.94-.28c.46,1.98.94,3.8,1.43,5.45.32,1.08.67,2.19,1.06,3.35.39,1.16.68,2.05.87,2.69.65,2.18.67,3.94.07,5.29-.61,1.33-1.63,2.21-3.06,2.63-.81.24-1.68.28-2.6.12-.92-.16-1.76-.52-2.52-1.08-.55-.42-1.17-1.12-1.84-2.1.26,1.17.36,2.11.29,2.8-.11,1.05-.46,1.97-1.08,2.75-.61.79-1.5,1.35-2.66,1.7-2.36.7-4.56.15-6.6-1.66-1.39-1.23-2.52-3.32-3.4-6.28-.2-.67-.48-1.73-.83-3.18-.25-1.01-.38-1.56-.41-1.67-.06-.19-.52-1.55-1.4-4.07l.94-.28c.17.31.3.54.38.7.76,1.46,1.24,2.25,1.44,2.37.14.1.44.1.89,0,1.01-.21,3.83-1,8.46-2.38l7.05-2.13c1.47-.45,2.31-.77,2.53-.98.11-.1.18-.25.21-.43.03-.18,0-1.06-.13-2.62-.01-.16-.03-.4-.04-.72m-18.05,12.56c.17,1.19.39,2.24.66,3.15.6,2.02,1.52,3.39,2.75,4.11,1.23.71,2.66.83,4.29.34,1.13-.34,1.96-.88,2.5-1.65.54-.76.81-1.57.83-2.43.01-.86-.23-2.14-.74-3.84-.3-1.01-.56-1.85-.78-2.5l-9.51,2.82Zm10.88-3.25c.28.97.43,1.5.46,1.61.53,1.79,1.07,3.06,1.62,3.81.54.74,1.27,1.26,2.17,1.55.9.29,1.85.29,2.84,0,1.42-.42,2.33-1.25,2.75-2.47.3-.88.2-2.14-.29-3.78-.28-.94-.66-1.94-1.15-3-1.65.34-3.88.93-6.68,1.76-.39.12-.97.29-1.72.53" style="fill: #1d1d1b;"></path><path d="m58.56,318.11l.88-.45c.24.31.43.54.54.7.82,1.13,1.4,1.77,1.73,1.93.19.09.55.05,1.07-.11.52-.16,1.94-.83,4.25-2.01l1.98-1.03c.91-1.51,2.3-3.94,4.18-7.32l2.55-4.7c.13-.32.2-.66.21-1.03.02-.57-.1-1.43-.37-2.58l.88-.45c.68,1.62,1.34,3.04,1.96,4.26.6,1.19,1.4,2.62,2.38,4.29l-.88.45c-.86-.99-1.41-1.54-1.62-1.65-.22-.11-.39-.13-.54-.06-.13.06-.29.26-.5.57-1.09,1.68-2.92,4.74-5.49,9.18,2.61.25,6.15.5,10.6.78.45.03.74.01.87-.05.14-.07.21-.18.23-.32.04-.42-.12-1.21-.47-2.38l.88-.45c.81,1.87,1.43,3.21,1.84,4.04.5.99,1.17,2.18,2.02,3.57l-.88.45c-.86-1.1-1.57-1.82-2.15-2.16-.58-.34-1.56-.6-2.94-.77-3-.37-6.69-.75-11.05-1.14-.5.24-.8.38-.88.43-3.45,1.75-5.34,2.74-5.67,2.95-.33.22-.53.46-.6.72-.08.39.11,1.34.57,2.85.04.13.09.32.16.57l-.88.45c-.83-1.9-1.53-3.42-2.11-4.56-.46-.91-1.38-2.58-2.74-4.99" style="fill: #1d1d1b;"></path><path d="m101.15,343.81l.72-.66c1.76,2.08,2.96,3.48,3.62,4.2.41.44,1.75,1.81,4.03,4.11l-.72.66c-1.61-1.24-2.57-1.94-2.89-2.12-.22-.13-.43-.17-.63-.14-.28.03-.7.29-1.26.77-.56.48-3.59,3.26-9.09,8.34-1.09,1-2.53,2.35-4.32,4.05l4.98,5.41c.75.81,1.28,1.29,1.61,1.45.32.15.77.21,1.35.16.58-.05,1.87-.33,3.88-.86l.96,1.04-3.64,1.54c-.66.3-1.52.7-2.57,1.22-3.03-3.47-5.7-6.45-8.01-8.96-1.63-1.77-3.2-3.38-4.69-4.81l.72-.67c1.38,1.03,2.21,1.62,2.5,1.76.29.14.54.18.76.12.22-.06.68-.41,1.39-1.07l7.57-6.87,4.81-4.5c.42-.38.62-.69.61-.91,0-.34-.39-1.1-1.16-2.29-.13-.21-.32-.54-.55-.97" style="fill: #1d1d1b;"></path><path d="m131.13,371.14l-.62.76c-.36-.18-.62-.31-.79-.41-1.31-.74-2.13-1.09-2.45-1.06-.32.03-.74.35-1.23.96l-.37.45-4.29,5.15-6.11,7.58c-.49.61-.72,1.06-.67,1.37.04.31.53.94,1.47,1.91.18.19.43.47.74.86l-.62.77c-1.31-1.23-2.61-2.36-3.89-3.4-1.33-1.08-2.82-2.22-4.49-3.41l.62-.77c.31.14.53.25.68.33,1.39.8,2.24,1.19,2.55,1.16.31-.03.75-.38,1.3-1.06l.5-.67,3.9-4.72c3.97-4.88,6.15-7.59,6.55-8.13.21-.3.3-.59.26-.89-.04-.29-.54-1.01-1.5-2.14-.13-.16-.31-.4-.55-.72l.62-.76c1.8,1.62,3.22,2.86,4.28,3.72,1.17.95,2.55,1.99,4.12,3.11" style="fill: #1d1d1b;"></path><path d="m137.45,377.3l.5-.85c2.47,1.61,4.48,2.86,6.01,3.76.88.52,1.71,1,2.49,1.43,1.04.56,1.75.96,2.14,1.19,1.87,1.1,3.01,2.38,3.44,3.81.41,1.44.17,2.92-.72,4.43-.6,1.01-1.34,1.79-2.23,2.32-.89.53-1.89.82-3.01.88-.81.04-1.85-.12-3.1-.46l1.11,9.06c.14,1.13.24,1.8.31,2.03.12.34.33.7.63,1.07.41.53,1.17,1.31,2.28,2.34l-.5.85c-1.45-1-2.52-1.7-3.21-2.11-.79-.47-1.64-.9-2.54-1.28,0-.97-.06-2.22-.15-3.74-.1-1.52-.17-2.43-.21-2.73-.03-.17-.05-.34-.06-.52l-.6-6.2c-.84-.52-1.67-1.09-2.48-1.71l-4.16,7.3c-.15.3-.19.57-.12.8.12.33.72.96,1.79,1.89.16.13.39.35.69.64l-.5.85c-1.67-1.13-3.17-2.08-4.49-2.86-1.42-.84-3.03-1.72-4.85-2.65l.5-.85.69.23c1.52.55,2.42.79,2.71.74.28-.06.57-.29.85-.7.18-.27,1.66-2.71,4.43-7.34l3.92-6.78c.6-1.04.92-1.65.97-1.83.05-.18.02-.35-.08-.51-.32-.53-.94-1.17-1.86-1.93-.14-.12-.34-.3-.62-.56m.83,12.34c.93.69,1.67,1.2,2.22,1.52,1.74,1.03,3.26,1.4,4.56,1.12,1.3-.28,2.35-1.11,3.17-2.49.72-1.21.91-2.38.58-3.52-.33-1.14-1.2-2.12-2.62-2.96-.51-.3-1.54-.83-3.1-1.6l-4.8,7.93Z" style="fill: #1d1d1b;"></path><path d="m176.59,395.42l.99.35c.11,4.14.37,8.88.79,14.22l.79,9.3c.06.34.17.61.32.82.1.14.78.67,2.04,1.58l-.33.93c-1.87-.8-3.25-1.36-4.15-1.68-.92-.33-2.51-.83-4.77-1.51l.33-.93c1.36.19,2.18.25,2.44.17.26-.08.44-.23.51-.44.08-.22.1-.63.07-1.23l-.22-4.4c-2.21-.81-3.82-1.4-4.83-1.77l-4.31-1.51-3.07,3.38c-.5.54-.78.89-.84,1.05-.05.14-.02.27.08.41.1.14.65.52,1.66,1.14.1.07.25.17.44.31l-.33.93c-1.75-.76-2.99-1.27-3.72-1.53-.93-.33-2.14-.7-3.64-1.11l.33-.93c1.03.13,1.76.13,2.21,0,.33-.1.72-.34,1.18-.71.97-.82,3.68-3.61,8.13-8.37l7.91-8.47Zm-9.17,12.55c1.44.56,2.47.96,3.1,1.18.19.07,1.8.62,4.84,1.66l-.6-10.84-7.34,8Z" style="fill: #1d1d1b;"></path><path d="m199.31,408.93l-1.18-.19c.44-1.39.95-3.44,1.54-6.17,4.44.84,7.27,1.36,8.49,1.56,2.89.47,5.86.88,8.91,1.25l-.16,1.01c-1.27,1.18-2.43,2.26-3.46,3.25-1.03.99-2.86,2.8-5.49,5.43l-6.17,6.14c-1.36,1.33-2.44,2.41-3.23,3.24l10.04,1.62c1.14.18,1.95.12,2.42-.2.47-.32,1.13-1.24,1.98-2.76.12-.21.31-.53.56-.96l1.19.19-1.37,3.75-.86,2.51c-3.89-.75-6.54-1.24-7.93-1.47-2.18-.35-5.74-.86-10.69-1.54l.17-1.09c1.7-1.56,3.17-2.95,4.43-4.16,2.06-1.99,6.71-6.59,13.97-13.79l-8.36-1.35c-1.25-.21-2.13-.16-2.63.14s-1.09,1.21-1.75,2.73c-.09.19-.23.47-.41.85" style="fill: #1d1d1b;"></path><path d="m242.45,407.21l-.11-.98c2.94-.2,5.3-.4,7.06-.6,1.02-.11,1.97-.23,2.85-.35,1.17-.17,1.98-.28,2.43-.34,2.16-.24,3.83.09,5.04.99,1.19.91,1.89,2.24,2.08,3.98.13,1.17,0,2.23-.39,3.19-.39.95-1.02,1.79-1.88,2.51-.63.52-1.54,1.02-2.76,1.5l6.32,6.58c.79.82,1.27,1.3,1.47,1.43.3.2.68.36,1.14.48.65.17,1.72.34,3.23.5l.11.98c-1.76.07-3.04.15-3.83.24-.92.1-1.85.26-2.8.49-.59-.77-1.38-1.74-2.37-2.9-.99-1.16-1.59-1.85-1.8-2.05-.13-.12-.25-.25-.36-.38l-4.2-4.6c-.99.09-1.99.13-3.01.12l1.06,8.34c.06.33.19.57.38.71.29.19,1.14.34,2.56.44.2.01.52.05.94.1l.11.98c-2.01.1-3.78.23-5.31.4-1.63.18-3.46.45-5.47.79l-.11-.98.7-.23c1.55-.47,2.42-.82,2.61-1.04.19-.21.28-.57.26-1.08-.01-.32-.3-3.17-.86-8.53l-.93-7.78c-.15-1.19-.25-1.87-.32-2.05-.07-.17-.19-.29-.37-.36-.57-.23-1.46-.37-2.65-.43-.18-.01-.46-.04-.83-.07m8.07,9.37c1.16,0,2.06-.05,2.69-.11,2.01-.22,3.45-.84,4.32-1.84.87-1.01,1.21-2.3,1.04-3.9-.15-1.39-.71-2.45-1.65-3.16-.95-.71-2.24-.98-3.87-.8-.59.06-1.73.26-3.44.58l.92,9.22Z" style="fill: #1d1d1b;"></path><path d="m276.27,413.69c-1.05-3.49-.79-6.7.79-9.62,1.58-2.92,4.13-4.91,7.67-5.97,3.29-.99,6.2-.79,8.75.61,2.54,1.39,4.34,3.82,5.38,7.29,1.16,3.85.98,7.23-.54,10.11-1.52,2.89-4.07,4.87-7.65,5.95-3.35,1.01-6.31.79-8.87-.64-2.56-1.43-4.4-4.01-5.53-7.74m3.36-1.52c1.06,3.52,2.62,5.93,4.69,7.22,2.07,1.3,4.28,1.6,6.63.89,1.55-.47,2.81-1.29,3.76-2.48.96-1.18,1.51-2.66,1.65-4.42.14-1.77-.08-3.61-.65-5.53-.72-2.41-1.72-4.29-2.99-5.64-1.27-1.35-2.58-2.2-3.95-2.54-1.37-.34-2.78-.29-4.22.15-1.59.48-2.88,1.32-3.89,2.54-1.01,1.21-1.56,2.7-1.68,4.46s.1,3.54.64,5.34" style="fill: #1d1d1b;"></path><path d="m303.9,393.18l-.46-.87c1.3-.56,2.3-1.03,3.02-1.41.58-.31,1.58-.92,3.01-1.82l6.97,2.98c.63.25,5.49,2.24,14.59,5.96-.73-1.37-1.25-2.37-1.59-2.99-.78-1.46-2.26-4.11-4.43-7.94-1.01-1.79-1.59-2.75-1.72-2.88-.14-.13-.33-.21-.57-.25-.24-.03-1.02.16-2.33.57-.17.05-.43.12-.78.21l-.46-.87c1.8-.83,3.21-1.52,4.24-2.07,1-.54,2.35-1.33,4.06-2.39l.46.87c-.23.21-.4.36-.52.45-1.17.98-1.8,1.55-1.9,1.72-.08.12-.12.25-.12.41-.01.21.07.54.27.99.09.19.78,1.54,2.08,4.04s2.57,4.91,3.82,7.23c1.47,2.74,2.77,5.03,3.88,6.87l-.72.96-10.21-4.32-13.23-5.36,4.74,8.65c2.09,3.77,3.23,5.77,3.43,5.99.14.16.3.26.51.32.32.08,1.16-.1,2.52-.56.16-.06.4-.13.73-.23l.47.87c-1.56.7-2.85,1.32-3.88,1.87-.86.46-2.34,1.32-4.42,2.58l-.46-.87c.3-.26.53-.46.68-.59,1.06-.84,1.64-1.39,1.73-1.67.06-.15.06-.34,0-.58-.14-.5-.99-2.25-2.54-5.22-2.2-4.22-3.51-6.71-3.92-7.47-1.32-2.46-2.09-3.81-2.3-4.05-.15-.17-.36-.27-.65-.28-.29-.02-1.32.28-3.11.88-.19.07-.48.15-.88.26" style="fill: #1d1d1b;"></path><path d="m347.61,365.29l-.68-.7c1.94-1.72,4.03-3.67,6.27-5.83,2.35-2.28,4.88-4.82,7.59-7.63l4.62,4.23-.83.8c-1.57-.94-2.6-1.51-3.11-1.7-.35-.13-.69-.13-1.04,0-.35.13-.94.61-1.79,1.43l-5.22,5.07c.97,1.1,2.91,3.17,5.81,6.22l3.29-3.19c.63-.61,1.01-1.05,1.12-1.3.12-.25.14-.54.06-.87-.08-.33-.4-.93-.96-1.81-.11-.16-.26-.4-.45-.73l.79-.77c1.55,1.74,2.56,2.86,3.05,3.36.15.16,1.18,1.14,3.07,2.94l-.79.77c-.26-.19-.45-.33-.57-.42-1.17-.86-1.95-1.29-2.34-1.28-.4.01-1.02.44-1.89,1.27l-3.27,3.18c.77.81,1.28,1.34,1.54,1.62,3.09,3.18,4.78,4.87,5.06,5.06.19.13.39.16.61.1.29-.07,1.37-.76,3.25-2.09l.69.7c-1.88,1.66-3.22,2.87-4.01,3.64l-4.05,4.19-.68-.7c.25-.37.45-.65.59-.83.82-1.08,1.24-1.79,1.24-2.14,0-.35-.26-.8-.8-1.36l-3.25-3.47c-.5-.53-1.47-1.54-2.92-3.03-3.51-3.61-5.51-5.64-6-6.08-.33-.29-.61-.42-.86-.4-.32.02-1.11.44-2.38,1.26-.17.12-.43.28-.77.5" style="fill: #1d1d1b;"></path><path d="m371.76,336.91l.63-.85c3.99,1.09,8.61,2.21,13.84,3.36l9.13,1.93c.35.03.64.01.88-.08.17-.05.87-.55,2.1-1.49l.79.59c-1.3,1.55-2.24,2.71-2.81,3.48-.58.79-1.53,2.16-2.83,4.13l-.79-.59c.58-1.25.86-2.01.86-2.28,0-.28-.09-.48-.27-.62-.19-.14-.57-.28-1.16-.42l-4.28-1.06c-1.42,1.88-2.45,3.25-3.09,4.11l-2.69,3.69,2.34,3.92c.37.63.63,1,.76,1.1.12.09.25.1.41.05.16-.06.68-.48,1.57-1.26.1-.08.24-.19.43-.33l.79.59c-1.23,1.45-2.08,2.49-2.54,3.12-.59.79-1.29,1.85-2.12,3.16l-.79-.59c.42-.95.64-1.65.64-2.12,0-.35-.12-.79-.34-1.33-.51-1.17-2.39-4.57-5.66-10.21l-5.82-10.02Zm9.36,12.41c.96-1.21,1.63-2.09,2.03-2.63.12-.16,1.12-1.54,2.99-4.15l-10.55-2.57,5.53,9.34Z" style="fill: #1d1d1b;"></path><path d="m384.99,319.73l-.88-.44c1.01-1.77,1.89-3.43,2.65-4.98.49-1.01.99-2.07,1.48-3.18.5-1.12.89-1.97,1.19-2.57,1-2.05,2.18-3.36,3.53-3.94,1.36-.56,2.7-.51,4.04.14.76.37,1.42.93,1.99,1.68.57.74.94,1.58,1.12,2.51.12.68.1,1.61-.07,2.79.61-1.04,1.17-1.79,1.68-2.26.79-.7,1.68-1.14,2.66-1.29.99-.16,2.02.03,3.11.56,2.22,1.09,3.46,2.99,3.73,5.69.19,1.84-.4,4.14-1.76,6.92-.31.63-.83,1.59-1.54,2.9-.5.9-.78,1.41-.83,1.51-.09.18-.66,1.49-1.73,3.94l-.88-.43c.08-.34.15-.6.19-.78.43-1.58.62-2.49.56-2.72-.04-.17-.26-.37-.65-.6-.89-.53-3.5-1.87-7.83-3.99l-6.63-3.22c-1.38-.66-2.22-.99-2.52-.99-.15,0-.3.06-.45.17-.15.11-.71.79-1.68,2.01-.1.12-.25.31-.46.56m11.58-1.99c.45-.89.7-1.39.75-1.49.82-1.68,1.29-2.98,1.39-3.9.1-.92-.08-1.79-.55-2.61-.47-.83-1.17-1.47-2.1-1.92-1.33-.65-2.56-.66-3.69-.05-.81.45-1.59,1.43-2.35,2.97-.43.88-.83,1.87-1.19,2.98,1.44.87,3.48,1.95,6.1,3.23.37.18.91.44,1.62.78m10.2,4.99c.68-.99,1.23-1.91,1.65-2.76.93-1.89,1.18-3.52.76-4.88-.42-1.36-1.4-2.41-2.92-3.16-1.06-.52-2.04-.68-2.96-.48-.91.19-1.67.6-2.25,1.23-.59.62-1.28,1.73-2.06,3.32-.47.95-.84,1.74-1.12,2.37l8.91,4.37Z" style="fill: #1d1d1b;"></path><path d="m399.45,282.24l.94.3c-.04.4-.07.69-.09.88-.21,1.48-.25,2.38-.1,2.67.15.3.59.56,1.34.8l.56.18,6.36,2.14,9.28,2.94c.74.24,1.25.28,1.52.13.27-.15.68-.84,1.24-2.06.11-.23.29-.57.53-1l.94.3c-.67,1.67-1.25,3.29-1.76,4.86-.52,1.63-1.04,3.43-1.56,5.42l-.94-.3c.01-.34.04-.58.06-.75.24-1.58.3-2.51.16-2.79-.14-.28-.62-.56-1.46-.83l-.8-.22-5.81-1.92c-5.99-1.93-9.3-2.99-9.95-3.16-.35-.09-.66-.06-.92.08-.25.14-.74.87-1.45,2.17-.1.18-.26.44-.48.77l-.94-.3c.86-2.26,1.5-4.04,1.91-5.33.46-1.44.94-3.1,1.41-4.97" style="fill: #1d1d1b;"></path><path d="m402.87,274.93l-.97-.15c.34-1.37.56-2.46.68-3.26.1-.65.22-1.81.35-3.5l6.57-3.78c.58-.35,5.1-3.04,13.54-8.08-1.54-.25-2.65-.43-3.34-.53-1.64-.25-4.64-.66-9.01-1.23-2.04-.27-3.15-.39-3.34-.35-.19.03-.37.14-.54.3-.17.17-.49.91-.95,2.21-.06.17-.16.42-.3.75l-.97-.15c.42-1.94.72-3.48.9-4.64.17-1.12.35-2.68.53-4.67l.97.15c.03.31.05.54.05.68.08,1.52.16,2.37.23,2.55.05.13.13.25.25.34.16.14.48.26.95.38.21.04,1.7.3,4.48.76,2.78.46,5.47.9,8.08,1.3,3.08.47,5.68.82,7.82,1.03l.33,1.15-9.6,5.56-12.23,7.35,9.75,1.41c4.27.6,6.56.89,6.85.86.2-.01.39-.08.56-.22.26-.21.61-.99,1.07-2.35.05-.16.14-.4.26-.72l.97.15c-.38,1.66-.66,3.07-.83,4.22-.15.97-.35,2.66-.6,5.09l-.97-.15c-.03-.4-.05-.7-.06-.9-.03-1.36-.13-2.15-.29-2.39-.08-.14-.24-.25-.47-.34-.49-.19-2.39-.56-5.7-1.11-4.69-.78-7.47-1.23-8.33-1.36-2.76-.42-4.3-.62-4.61-.59-.23.01-.43.13-.62.34-.19.22-.57,1.23-1.16,3.01-.06.19-.17.48-.32.86" style="fill: #1d1d1b;"></path><path d="m259.56,204.64c13.59-14.28,27.15-28.59,27.15-52.51,0-14.59-10.41-43.79-57.82-43.79-13.28,0-24.55.88-31.51.88-1.43,0-19.66-.88-32.65-.88-3.17,0-4.62.59-4.62,2.35,0,1.16,1.15,1.76,2.31,1.76,2.6,0,7.51.28,9.82.88,9.55,2.03,11.84,6.71,12.44,16.61.57,9.36.57,17.51.57,63.05v51.35c0,28.01,0,51.08-1.45,63.34-1.17,8.46-2.6,14.88-8.37,16.04-2.62.57-6.08,1.16-8.67,1.16-1.74,0-2.33.88-2.33,1.76,0,1.76,1.45,2.33,4.62,2.33,4.36,0,11.01-.57,16.78-.57,6.08-.3,10.99-.3,11.56-.3,1.17,0,9.25.3,17.64.88,8.39.28,17.64.88,20.83.88,49.43,0,73.7-32.4,73.7-63.61,0-34.16-28.61-54.88-49.99-61.6m-51.19-83.45c0-1.76.88-2.62,3.48-3.21,4.62-1.17,10.7-1.45,13.87-1.45,28.34,0,39.02,25.97,39.02,50.18,0,11.97-4.34,22.46-10.42,29.48-6.05,6.99-10.11,7.58-26.29,7.58-10.68,0-15.9-.88-17.63-1.17-1.43-.59-2.03-1.16-2.03-3.21v-78.22Zm35.56,199.32c-5.2,0-17.64-.59-25.43-4.37-8.96-4.39-8.96-8.46-9.84-22.76-.29-4.37-.29-40.56-.29-63.05v-16.63c0-1.45.59-2.02,1.74-2.02,4.34,0,18.78,0,22.55.57,6.93.88,14.17,1.74,24,8.46,22.24,15.47,28.05,40.86,28.05,58.37,0,32.96-25.15,41.44-40.77,41.44" style="fill: #1d1d1b;"></path></g></g></svg>